#!OML:ASF F:\VICON\USERDATA\INSTALL\SteveWalk\SteveWalk.ASF
:FULLY-SPECIFIED
:DEGREES
259
root 0.152033 16.3374 8.92265 16.9882 0.363865 -0.266361
lowerback -14.738 0.468351 0.752292
upperback -4.89306 0.462739 1.21288
thorax 3.08449 0.234355 0.923228
lowerneck -4.32643 -0.347243 0.29458
upperneck 9.53855 -0.225784 -2.72327
head 3.87148 -0.220133 -0.965889
rclavicle 2.25496e-015 -8.34896e-015
rhumerus -20.2855 3.23189 -87.1685
rradius 37.123
rwrist -9.52515
rhand -16.378 -33.0724
rfingers 7.12502
rthumb 9.83553 -62.8227
lclavicle 2.25496e-015 -8.34896e-015
lhumerus -50.2158 20.3963 70.8351
lradius 14.7285
lwrist -18.4954
lhand -17.1905 -14.4952
lfingers 7.12502
lthumb 9.05149 15.2906
rfemur -19.0319 -6.75283 25.2228
rtibia 31.4043
rfoot -28.9992 11.3484
rtoes -1.16138
lfemur -49.4736 3.06811 -22.0479
ltibia 43.4266
lfoot -10.3071 8.7744
ltoes -5.97079
260
root 0.163493 16.3308 9.13375 17.0626 0.182088 -0.17265
lowerback -14.926 0.542004 0.715566
upperback -4.84354 0.566532 1.08995
thorax 3.23729 0.285216 0.835553
lowerneck -4.41519 -0.383723 0.314529
upperneck 9.4941 -0.285314 -2.6378
head 3.87189 -0.245372 -0.943905
rclavicle -1.49399e-015 1.98785e-015
rhumerus -19.5209 4.10542 -87.197
rradius 37.9066
rwrist -10.6191
rhand -16.4258 -32.9583
rfingers 7.12502
rthumb 9.78935 -62.7107
lclavicle -1.49399e-015 1.98785e-015
lhumerus -51.1363 20.1089 70.5063
lradius 14.8677
lwrist -17.7171
lhand -17.2256 -14.5223
lfingers 7.12502
lthumb 9.01763 15.2649
rfemur -17.8173 -7.66306 24.9634
rtibia 30.4948
rfoot -29.0064 12.8763
rtoes 1.43647
lfemur -49.3378 2.90848 -22.0945
ltibia 39.9339
lfoot -10.2454 8.77532
ltoes -7.06249
261
root 0.176814 16.3268 9.34324 17.1959 -0.128225 -0.142673
lowerback -15.0566 0.644085 0.775978
upperback -4.87646 0.695201 0.97762
thorax 3.27357 0.348163 0.707506
lowerneck -4.45816 -0.331138 0.278453
upperneck 9.56455 -0.224992 -2.4828
head 3.90588 -0.210767 -0.884018
rclavicle 1.08835e-014 6.36111e-015
rhumerus -18.9351 4.97581 -87.2217
rradius 39.2677
rwrist -11.0615
rhand -16.1371 -34.049
rfingers 7.12502
rthumb 10.0679 -63.7881
lclavicle 1.08835e-014 6.36111e-015
lhumerus -52.2144 19.7028 70.2866
lradius 15.2129
lwrist -16.7321
lhand -17.1735 -14.4377
lfingers 7.12502
lthumb 9.06789 15.3474
rfemur -16.6951 -8.49037 24.726
rtibia 29.6855
rfoot -29.1688 14.3118
rtoes 3.15989
lfemur -49.2126 2.78865 -22.0495
ltibia 36.3543
lfoot -9.88795 8.70814
ltoes -8.90785
262
root 0.177327 16.3207 9.53421 17.4146 -0.869751 -0.138402
lowerback -15.059 0.819102 0.563162
upperback -4.98447 0.959197 0.934705
thorax 3.15685 0.47918 0.82787
lowerneck -4.28943 -0.277337 0.232982
upperneck 9.4645 -0.160123 -2.39644
head 3.83786 -0.174906 -0.842152
rclavicle 7.70601e-015 -4.37326e-015
rhumerus -18.4236 5.88699 -87.1857
rradius 40.3394
rwrist -11.9057
rhand -16.7112 -33.4313
rfingers 7.12502
rthumb 9.51399 -63.1965
lclavicle 7.70601e-015 -4.37326e-015
lhumerus -53.2733 19.3306 70.1306
lradius 15.5298
lwrist -15.7875
lhand -16.9592 -14.1007
lfingers 7.12502
lthumb 9.27468 15.6753
rfemur -15.7618 -8.47718 24.4888
rtibia 28.8712
rfoot -29.3223 14.4799
rtoes 1.00451
lfemur -49.2111 2.81079 -21.8042
ltibia 32.7533
lfoot -9.28334 8.54449
ltoes -9.86249
263
root 0.171434 16.3103 9.7176 18.0127 -2.17148 -0.429301
lowerback -15.3377 1.22782 0.438558
upperback -5.20739 1.51301 0.945564
thorax 3.06175 0.754243 1.00935
lowerneck -3.94349 -0.296856 0.222806
upperneck 9.10581 -0.192279 -2.41976
head 3.64327 -0.18777 -0.844151
rclavicle -6.18717e-015 -1.07344e-014
rhumerus -17.9077 6.54853 -87.0914
rradius 41.0937
rwrist -12.3956
rhand -16.6757 -33.5338
rfingers 7.12502
rthumb 9.54823 -63.2974
lclavicle -6.18717e-015 -1.07344e-014
lhumerus -54.1583 19.1161 69.8249
lradius 15.5492
lwrist -15.0359
lhand -16.606 -13.789
lfingers 7.12502
lthumb 9.61552 15.9715
rfemur -15.3327 -7.95391 24.4453
rtibia 28.0291
rfoot -29.1566 14.9485
rtoes -0.315169
lfemur -49.5987 3.22494 -21.1919
ltibia 29.2634
lfoot -9.0806 8.4275
ltoes -8.16309
264
root 0.174292 16.2904 9.91419 18.2604 -2.49606 -0.576368
lowerback -15.4882 1.34487 0.416874
upperback -5.25367 1.66887 0.942106
thorax 3.09065 0.831463 1.04864
lowerneck -3.95356 -0.314469 0.0593559
upperneck 9.02858 -0.22096 -2.2472
head 3.61707 -0.199979 -0.758996
rclavicle 0 -3.97569e-015
rhumerus -17.2729 7.08569 -86.9483
rradius 41.7867
rwrist -12.5452
rhand -16.5412 -33.8602
rfingers 7.12502
rthumb 9.67799 -63.6179
lclavicle 0 -3.97569e-015
lhumerus -54.956 19.2702 69.1283
lradius 15.3953
lwrist -14.9236
lhand -16.1746 -13.6631
lfingers 7.12502
lthumb 10.0317 16.0778
rfemur -14.3405 -7.97769 24.4088
rtibia 27.089
rfoot -28.9827 15.4315
rtoes 0.313536
lfemur -49.6611 3.03797 -20.6745
ltibia 26.055
lfoot -9.20355 8.10572
ltoes -6.41635
265
root 0.178026 16.2713 10.1191 18.3731 -2.68755 -0.897708
lowerback -15.5911 1.46895 0.592542
upperback -5.22258 1.80197 0.993636
thorax 3.17987 0.896645 1.03074
lowerneck -4.30081 -0.31713 -0.0823759
upperneck 9.22915 -0.223679 -2.07213
head 3.75492 -0.20206 -0.679866
rclavicle -1.48529e-014 -3.97569e-016
rhumerus -16.6006 7.67508 -86.7703
rradius 42.4539
rwrist -12.9107
rhand -16.9284 -33.5837
rfingers 7.12502
rthumb 9.30443 -63.3584
lclavicle -1.48529e-014 -3.97569e-016
lhumerus -55.767 19.2816 68.5621
lradius 15.4371
lwrist -14.7011
lhand -15.8545 -14.0406
lfingers 7.12502
lthumb 10.3405 15.6851
rfemur -13.0957 -8.00089 24.5568
rtibia 26.0009
rfoot -28.5844 16.1951
rtoes 2.02103
lfemur -49.689 3.03589 -20.1115
ltibia 23.3025
lfoot -9.18672 7.75158
ltoes -6.77515
